# File created by Blade
# Date/Time:  Wed Jan 28 15:39:58 2015
#---------------------------------------------------------
:version 1.10
:name HOM
:units
  mass 1.0
  length 1.000000
  angle deg
:documentation
     Acclaim Skeleton File
:root
   axis xyz
   order TX TY TZ RX RY RZ
   position 0.000000 0.000000 0.000000
   orientation 0 0 0
:bonedata
   begin
      id 1
      name Spine_dum
      direction 0.000000 1.000000 0.000000
      length 6.864287
      axis 0.0 0.0 0.0 xyz
   end
   begin
      id 2
      name LeftUpLeg_dum
      direction 1.000000 0.000000 0.000000
      length 4.117376
      axis 0.0 0.0 0.0 xyz
   end
   begin
      id 3
      name RightUpLeg_dum
      direction -1.000000 0.000000 0.000000
      length 4.117376
      axis 0.0 0.0 0.0 xyz
   end
   begin
      id 4
      name Spine
      direction 0.000000 1.000000 0.000000
      length 0.000000
      axis 0.0 0.0 0.0 xyz
      dof rx ry rz
   end
   begin
      id 5
      name Spine_dum1
      direction 0.000000 1.000000 0.000000
      length 15.393827
      axis 0.0 0.0 0.0 xyz
   end
   begin
      id 6
      name Spine_dum2
      direction 0.000000 1.000000 0.000000
      length 9.314826
      axis 0.0 0.0 0.0 xyz
   end
   begin
      id 7
      name Spine_dum3
      direction 0.000000 1.000000 0.000000
      length 9.314826
      axis 0.0 0.0 0.0 xyz
   end
   begin
      id 8
      name Head
      direction 0.000000 1.000000 0.000000
      length 4.527550
      axis 0.0 0.0 0.0 xyz
      dof rx ry rz
   end
   begin
      id 9
      name LeftShoulder
      direction 1.000000 0.000000 0.000000
      length 8.275398
      axis 0.0 0.0 -90.0 xyz
      dof rx ry rz
   end
   begin
      id 10
      name LeftArm
      direction 1.000000 0.000000 0.000000
      length 12.002200
      axis 0.0 0.0 -90.0 xyz
      dof rx ry rz
   end
   begin
      id 11
      name LeftForeArm
      direction 1.000000 0.000000 0.000000
      length 10.144633
      axis 0.0 0.0 -90.0 xyz
      dof ry rz rx
   end
   begin
      id 12
      name LeftHand
      direction 0.000000 0.000000 0.000000
      length 0.000000
      axis 0.0 0.0 -90.0 xyz
      dof rx ry rz
   end
   begin
      id 13
      name LeftHand_dum1
      direction 0.000000 0.000000 0.000000
      length 0.000000
      axis 0.0 0.0 -90.0 xyz
   end
   begin
      id 14
      name LeftHand_dum2
      direction 1.000000 0.000000 0.000000
      length 3.937000
      axis 0.0 0.0 -90.0 xyz
   end
   begin
      id 15
      name LeftHandThumb1
      direction 0.000000 0.000000 1.000000
      length 3.937000
      axis 0.0 0.0 -90.0 xyz
      dof rx rz ry
   end
   begin
      id 16
      name RightShoulder
      direction -1.000000 0.000000 0.000000
      length 8.275398
      axis 0.0 0.0 90.0 xyz
      dof rx ry rz
   end
   begin
      id 17
      name RightArm
      direction -1.000000 0.000000 0.000000
      length 12.002200
      axis 0.0 0.0 90.0 xyz
      dof rx ry rz
   end
   begin
      id 18
      name RightForeArm
      direction -1.000000 0.000000 0.000000
      length 10.144633
      axis 0.0 0.0 90.0 xyz
      dof ry rz rx
   end
   begin
      id 19
      name RightHand
      direction 0.000000 0.000000 0.000000
      length 0.000000
      axis 0.0 0.0 90.0 xyz
      dof rx ry rz
   end
   begin
      id 20
      name RightHand_dum1
      direction 0.000000 0.000000 0.000000
      length 0.000000
      axis 0.0 0.0 90.0 xyz
   end
   begin
      id 21
      name RightHand_dum2
      direction -1.000000 0.000000 0.000000
      length 3.937000
      axis 0.0 0.0 90.0 xyz
   end
   begin
      id 22
      name RightHandThumb1
      direction 0.000000 0.000000 1.000000
      length 3.937000
      axis 0.0 0.0 90.0 xyz
      dof rx rz ry
   end
   begin
      id 23
      name LeftUpLeg
      direction 0.000000 -1.000000 0.000000
      length 19.394322
      axis 0.0 0.0 0.0 xyz
      dof rx ry rz
   end
   begin
      id 24
      name LeftLeg
      direction 0.000000 -1.000000 0.000000
      length 17.609563
      axis 0.0 0.0 0.0 xyz
      dof rx ry rz
   end
   begin
      id 25
      name LeftFoot
      direction 0.000000 -0.258819 0.965926
      length 6.085393
      axis 15.0 0.0 0.0 xyz
      dof rx ry rz
   end
   begin
      id 26
      name LeftToeBase
      direction 0.000000 0.000000 1.000000
      length 2.952750
      axis 0.0 0.0 0.0 xyz
      dof rx ry rz
   end
   begin
      id 27
      name RightUpLeg
      direction 0.000000 -1.000000 0.000000
      length 19.394322
      axis 0.0 0.0 0.0 xyz
      dof rx ry rz
   end
   begin
      id 28
      name RightLeg
      direction 0.000000 -1.000000 0.000000
      length 17.609563
      axis 0.0 0.0 0.0 xyz
      dof rx ry rz
   end
   begin
      id 29
      name RightFoot
      direction 0.000000 -0.258819 0.965926
      length 6.085393
      axis 15.0 0.0 0.0 xyz
      dof rx ry rz
   end
   begin
      id 30
      name RightToeBase
      direction 0.000000 0.000000 1.000000
      length 2.952750
      axis 0.0 0.0 0.0 xyz
      dof rx ry rz
   end
:hierarchy
   begin
      root Spine_dum LeftUpLeg_dum RightUpLeg_dum
      Spine_dum Spine
      LeftUpLeg_dum LeftUpLeg
      RightUpLeg_dum RightUpLeg
      Spine Spine_dum1 Spine_dum2 Spine_dum3
      Spine_dum1 Head
      Spine_dum2 LeftShoulder
      Spine_dum3 RightShoulder
      LeftShoulder LeftArm
      LeftArm LeftForeArm
      LeftForeArm LeftHand
      LeftHand LeftHand_dum1 LeftHand_dum2
      LeftHand_dum1 LeftHandThumb1
      RightShoulder RightArm
      RightArm RightForeArm
      RightForeArm RightHand
      RightHand RightHand_dum1 RightHand_dum2
      RightHand_dum1 RightHandThumb1
      LeftUpLeg LeftLeg
      LeftLeg LeftFoot
      LeftFoot LeftToeBase
      RightUpLeg RightLeg
      RightLeg RightFoot
      RightFoot RightToeBase
   end

# File created by Blade
# Date/Time:  Wed Jan 28 15:40:07 2015
# Frame Rate: 120.000 fps
#------------------------------------------------------
:FULLY-SPECIFIED
:DEGREES
231
root -3.820873 39.908456 -11.487401 5.977027 -41.333859 15.022308
Spine 21.046219 -6.038374 12.478998
Head -4.303912 -16.858322 -1.459011
LeftShoulder -12.367128 19.425803 14.387215
LeftArm 22.769295 34.005614 -67.930889
LeftForeArm 9.437325 -0.000000 58.580702
LeftHand 7.363316 0.000000 -3.699231
LeftHandThumb1 -26.253704 0.000000 33.147579
RightShoulder -2.464111 14.847545 -27.926342
RightArm 22.103189 33.445150 56.049578
RightForeArm -3.037240 -0.000000 59.862971
RightHand -7.964648 -0.000000 -42.902312
RightHandThumb1 -24.326973 -0.000000 -32.862282
LeftUpLeg -14.398373 16.359064 -1.996932
LeftLeg 19.774177 -0.000000 -0.000000
LeftFoot 2.089956 14.724359 -17.069515
LeftToeBase 3.110693 -0.000000 -0.000000
RightUpLeg -23.630310 -9.704269 -3.799878
RightLeg 15.354139 -0.000000 -0.000000
RightFoot -19.455473 -21.133372 17.249547
RightToeBase 12.642916 -0.000000 -0.000000
232
root -3.866683 39.907473 -11.490377 5.988340 -41.432042 15.164730
Spine 21.065635 -6.098510 12.524191
Head -4.367887 -15.551806 -1.707752
LeftShoulder -12.324535 19.390027 14.425754
LeftArm 22.716509 33.991664 -68.010229
LeftForeArm 9.115127 -0.000000 58.496511
LeftHand 7.517148 -0.000000 -3.547150
LeftHandThumb1 -26.253704 0.000000 33.147579
RightShoulder -2.539063 14.438326 -27.868205
RightArm 22.846055 33.754665 56.359685
RightForeArm -3.086598 -0.000000 60.307933
RightHand -8.026576 -0.000000 -42.958074
RightHandThumb1 -24.326973 -0.000000 -32.862282
LeftUpLeg -14.500310 16.284848 -2.020046
LeftLeg 19.856036 -0.000000 -0.000000
LeftFoot 2.133298 14.737200 -17.451439
LeftToeBase 3.196887 -0.000000 -0.000000
RightUpLeg -23.760731 -9.555508 -3.854836
RightLeg 15.461579 -0.000000 -0.000000
RightFoot -19.497583 -21.173925 17.125834
RightToeBase 12.371165 -0.000000 -0.000000
233
root -3.916312 39.906741 -11.495513 6.005062 -41.555747 15.332557
Spine 21.055888 -6.111414 12.548818
Head -4.383100 -14.149371 -1.975847
LeftShoulder -12.276688 19.396414 14.420419
LeftArm 22.738076 33.978550 -67.987721
LeftForeArm 8.809138 -0.000000 58.380721
LeftHand 7.571591 0.000000 -3.433099
LeftHandThumb1 -26.253704 0.000000 33.147579
RightShoulder -2.418123 14.648209 -27.950287
RightArm 22.413177 33.952700 56.329559
RightForeArm -3.158177 -0.000000 61.196730
RightHand -8.071418 -0.000000 -42.331543
RightHandThumb1 -24.326973 -0.000000 -32.862282
LeftUpLeg -14.607869 16.248052 -2.063774
LeftLeg 19.881694 -0.000000 -0.000000
LeftFoot 2.373669 14.834085 -17.251953
LeftToeBase 3.176273 -0.000000 -0.000000
RightUpLeg -23.939075 -9.412143 -3.918425
RightLeg 15.596996 -0.000000 -0.000000
RightFoot -19.649924 -21.267944 17.193749
RightToeBase 12.609676 -0.000000 -0.000000
234
root -3.962031 39.905834 -11.497417 5.989180 -41.659051 15.494291
Spine 21.110310 -6.175698 12.584382
Head -4.484055 -12.813911 -2.235950
LeftShoulder -12.246131 19.369418 14.401514
LeftArm 22.711418 33.967703 -67.995354
LeftForeArm 8.558489 -0.000000 58.324598
LeftHand 7.676228 -0.000000 -3.222334
LeftHandThumb1 -26.253704 0.000000 33.147579
RightShoulder -2.425996 14.616078 -27.994376
RightArm 22.578246 33.980398 56.330002
RightForeArm -3.053546 -0.000000 61.645762
RightHand -8.165151 -0.000000 -42.694296
RightHandThumb1 -24.326973 -0.000000 -32.862282
LeftUpLeg -14.681668 16.191809 -2.107589
LeftLeg 19.943274 -0.000000 -0.000000
LeftFoot 2.508062 14.803870 -17.561119
LeftToeBase 2.934858 -0.000000 -0.000000
RightUpLeg -24.087166 -9.317365 -3.976477
RightLeg 15.767216 -0.000000 -0.000000
RightFoot -19.684068 -21.249067 17.031312
RightToeBase 12.371688 -0.000000 -0.000000
235
root -4.012203 39.905088 -11.500751 5.992639 -41.742808 15.629268
Spine 21.155058 -6.258775 12.635954
Head -4.574808 -11.442581 -2.489779
LeftShoulder -12.251954 19.415306 14.302629
LeftArm 22.738003 33.863185 -67.948507
LeftForeArm 8.448877 -0.000000 58.329222
LeftHand 7.651610 -0.000000 -3.160167
LeftHandThumb1 -26.253704 0.000000 33.147579
RightShoulder -2.418253 14.623882 -28.058993
RightArm 22.600424 34.030673 56.346244
RightForeArm -2.963783 -0.000000 62.181808
RightHand -8.172940 -0.000000 -42.658837
RightHandThumb1 -24.326973 -0.000000 -32.862282
LeftUpLeg -14.740707 16.114087 -2.106334
LeftLeg 19.958684 -0.000000 -0.000000
LeftFoot 2.733550 14.832217 -17.396382
LeftToeBase 2.886504 -0.000000 -0.000000
RightUpLeg -24.193942 -9.187478 -4.029511
RightLeg 15.862129 -0.000000 -0.000000
RightFoot -19.814681 -21.269458 17.120423
RightToeBase 12.326268 -0.000000 -0.000000
236
root -4.060505 39.903426 -11.504951 5.991548 -41.837791 15.796039
Spine 21.181796 -6.331330 12.640884
Head -4.625765 -9.909102 -2.779457
LeftShoulder -12.259106 19.383896 14.252078
LeftArm 22.709081 33.832134 -67.920352
LeftForeArm 8.229600 -0.000000 58.295924
LeftHand 7.695088 -0.000000 -3.128916
LeftHandThumb1 -26.253704 0.000000 33.147579
RightShoulder -2.370795 14.762511 -28.118387
RightArm 22.392705 34.115477 56.352574
RightForeArm -2.933071 -0.000000 62.870696
RightHand -8.152604 0.000000 -42.119581
RightHandThumb1 -24.326973 -0.000000 -32.862282
LeftUpLeg -14.827225 16.055713 -2.143153
LeftLeg 19.995366 -0.000000 -0.000000
LeftFoot 2.922755 14.826004 -17.366512
LeftToeBase 2.829150 -0.000000 -0.000000
RightUpLeg -24.365909 -9.124454 -4.080809
RightLeg 16.038010 -0.000000 -0.000000
RightFoot -19.910715 -21.258355 17.065988
RightToeBase 12.284537 -0.000000 -0.000000
237
root -4.106641 39.902694 -11.508408 5.979991 -41.900252 15.948002
Spine 21.218301 -6.417309 12.684411
Head -4.647701 -8.392595 -3.115766
LeftShoulder -12.221655 19.413308 14.207248
LeftArm 22.770143 33.760523 -67.881863
LeftForeArm 8.110637 -0.000000 58.208806
LeftHand 7.666955 -0.000000 -3.202530
LeftHandThumb1 -26.253704 0.000000 33.147579
RightShoulder -2.371410 14.699485 -28.198940
RightArm 22.458696 34.202588 56.397777
RightForeArm -2.926184 -0.000000 63.374760
RightHand -8.122330 -0.000000 -41.955904
RightHandThumb1 -24.326973 -0.000000 -32.862282
LeftUpLeg -14.895998 15.970947 -2.166071
LeftLeg 20.033851 -0.000000 -0.000000
LeftFoot 3.070707 14.820549 -17.436521
LeftToeBase 2.810178 -0.000000 -0.000000
RightUpLeg -24.503215 -9.081162 -4.130065
RightLeg 16.195587 -0.000000 -0.000000
RightFoot -20.027921 -21.241740 17.080627
RightToeBase 12.283252 -0.000000 -0.000000
238
root -4.152982 39.901079 -11.508653 5.981590 -41.959605 16.116151
Spine 21.215042 -6.509572 12.724784
Head -4.666164 -6.918391 -3.422798
LeftShoulder -12.158556 19.384356 14.145980
LeftArm 22.664216 33.690136 -67.945091
LeftForeArm 8.009523 -0.000000 58.153488
LeftHand 7.790507 -0.000000 -2.971613
LeftHandThumb1 -26.253704 0.000000 33.147579
RightShoulder -2.363131 14.805990 -28.308140
RightArm 22.324188 34.188583 56.361512
RightForeArm -3.118396 -0.000000 63.905920
RightHand -8.246798 0.000000 -41.857313
RightHandThumb1 -24.326973 -0.000000 -32.862282
LeftUpLeg -14.984084 15.900615 -2.210133
LeftLeg 20.065901 -0.000000 -0.000000
LeftFoot 3.226797 14.795736 -17.424014
LeftToeBase 2.858211 -0.000000 -0.000000
RightUpLeg -24.683772 -9.090192 -4.173424
RightLeg 16.407660 -0.000000 -0.000000
RightFoot -20.146621 -21.100167 17.089038
RightToeBase 12.836587 -0.000000 -0.000000
239
root -4.200141 39.899680 -11.511475 5.967861 -42.023867 16.279262
Spine 21.244298 -6.593571 12.754835
Head -4.695932 -5.452409 -3.762881
LeftShoulder -12.132989 19.425736 14.051084
LeftArm 22.719095 33.620768 -67.871465
LeftForeArm 7.851722 -0.000000 58.093573
LeftHand 7.922547 -0.000000 -2.814814
LeftHandThumb1 -26.253704 0.000000 33.147579
RightShoulder -2.395861 14.817992 -28.414160
RightArm 22.301679 34.072723 56.353873
RightForeArm -2.835594 -0.000000 64.448506
RightHand -8.055086 -0.000000 -42.353985
RightHandThumb1 -24.326973 -0.000000 -32.862282
LeftUpLeg -15.061658 15.858208 -2.248785
LeftLeg 20.114371 -0.000000 -0.000000
LeftFoot 3.366628 14.767739 -17.458094
LeftToeBase 2.940919 -0.000000 -0.000000
RightUpLeg -24.834074 -9.094416 -4.215781
RightLeg 16.562588 -0.000000 -0.000000
RightFoot -20.220892 -21.135320 17.002660
RightToeBase 12.176524 -0.000000 -0.000000
240
root -4.249828 39.897276 -11.515511 5.965911 -42.080667 16.429423
Spine 21.224004 -6.695669 12.765229
Head -4.603287 -3.860142 -4.097751
LeftShoulder -12.023580 19.377110 14.046907
LeftArm 22.587286 33.556621 -67.952645
LeftForeArm 7.760013 -0.000000 58.005753
LeftHand 7.712712 0.000000 -2.933211
LeftHandThumb1 -26.253704 0.000000 33.147579
RightShoulder -2.359479 14.743631 -28.457514
RightArm 22.405140 34.148750 56.429557
RightForeArm -2.901276 0.000000 64.850743
RightHand -7.928909 -0.000000 -42.019063
RightHandThumb1 -24.326973 -0.000000 -32.862282
LeftUpLeg -15.135581 15.806939 -2.264862
LeftLeg 20.152150 -0.000000 -0.000000
LeftFoot 3.528116 14.705880 -17.505177
LeftToeBase 2.940478 -0.000000 -0.000000
RightUpLeg -24.984500 -9.026289 -4.267650
RightLeg 16.742302 -0.000000 -0.000000
RightFoot -20.396554 -21.122350 17.077364
RightToeBase 12.318241 -0.000000 -0.000000
